# xmcd
#
# Track frame offsets:
#	150
#	14611
#	32743
#	48462
#	74252
#	94312
#	113997
#	135779
#	151532
#	169662
#	182978
#	199066
#	221203
#	238155
#
# Disc length: 3336 seconds
#
# Revision: 0
# Processed by: cddbd v1.5.1PL0 Copyright (c) Steve Scherf et al.
# Submitted via: dBpowerAMP V4.0
#
DISCID=c30d060e
DTITLE=Marcia Ball - Presumed Innocent
DYEAR=2004
DGENRE=Blues
TTITLE0=Scene of the Crime
TTITLE1=You Make It Hard
TTITLE2=Count The Days
TTITLE3=Let the Tears Roll Down
TTITLE4=Louella
TTITLE5=Fly on the Wall
TTITLE6=I Have the Right to Know
TTITLE7=Thibodaux, Louisiana
TTITLE8=I'm Coming Down With the Blues
TTITLE9=Shake a Leg
TTITLE10=Somebody to Love
TTITLE11=She's So Innocent
TTITLE12=You Make Me Happy
TTITLE13=Unknown
EXTD=
EXTT0=
EXTT1=
EXTT2=
EXTT3=
EXTT4=
EXTT5=
EXTT6=
EXTT7=
EXTT8=
EXTT9=
EXTT10=
EXTT11=
EXTT12=
EXTT13=
PLAYORDER=
